<svg width="733" height="43" viewBox="0 0 733 43" fill="none" xmlns="http://www.w3.org/2000/svg">
<path d="M364.982 1.84579L363.202 3.69146L365.048 5.47122L366.893 7.25098L368.673 5.4053L370.453 3.55963L368.607 1.77987L366.762 0.00011158L364.982 1.84579Z" fill="black"/>
<path d="M319.499 8.56936C312.71 10.2832 307.107 14.6337 300.185 23.5325C295.176 29.8605 292.077 32.695 288.254 34.4088C284.827 35.9249 283.706 37.3092 286.475 36.65C290.298 35.6612 294.121 32.7609 298.801 27.1579C309.216 14.6337 311.984 12.3925 318.972 10.2832C329.518 7.1851 340.395 11.1401 344.745 19.7093C346.129 22.5438 346.723 24.6531 346.789 27.1579C346.854 34.7384 347.645 37.6387 350.216 40.0117C353.512 42.978 357.138 43.0439 359.972 40.2754C362.411 37.8365 362.477 35.068 360.302 32.9586C358.126 30.9811 355.556 31.047 353.446 33.1564C351.798 34.8702 351.798 34.9361 352.985 36.2545C354.237 37.6387 356.874 38.0342 357.599 36.9137C358.324 35.7271 357.269 34.8702 355.951 35.5953C354.237 36.5181 353.512 35.1998 354.962 33.6178C356.215 32.2335 357.994 32.4972 359.642 34.3429C360.499 35.3316 360.631 36.0567 360.17 37.7047C359.642 39.4844 359.049 40.0117 357.006 40.5391C354.105 41.2642 351.93 40.3413 349.755 37.3751C348.7 35.9249 348.371 34.2111 348.041 28.8059C347.448 18.9842 344.877 14.5678 337.362 10.5469C333.737 8.56936 332.551 8.30569 327.607 8.10794C324.509 8.04203 320.883 8.23978 319.499 8.56936Z" fill="black"/>
<path d="M400.775 8.50296C394.645 10.4145 388.778 15.2924 386.932 20.1043C386.471 21.2249 385.878 25.114 385.614 28.7395C384.955 37.7042 382.977 40.8682 378.099 40.8682C375.858 40.8682 373.09 38.4293 373.09 36.4517C373.09 33.4855 377.177 31.7716 379.022 33.9469C379.945 35.0675 379.418 35.9903 377.572 36.3858C376.781 36.5177 376.583 36.8472 376.979 37.5064C377.506 38.2974 377.836 38.2974 379.286 37.3087C381.329 35.9903 381.461 34.2765 379.681 32.6286C377.902 31.0466 375.331 31.1784 373.353 32.9581C369.794 36.3199 372.628 42.1865 377.77 42.1865C384.098 42.1865 386.207 39.1543 386.866 29.069C387.262 23.0047 387.591 21.4886 389.173 18.8519C394.447 9.82129 407.301 6.65728 418.111 11.7329C423.318 14.1059 427.142 17.5336 432.745 24.7185C435.052 27.6848 438.018 31.0466 439.402 32.299C442.566 35.0675 447.246 37.1768 448.565 36.4517C449.29 36.0562 448.762 35.6607 446.587 35.0016C443.028 33.9469 438.941 30.4533 434.327 24.5208C427.076 15.2265 422.725 11.667 415.606 9.22804C411.651 7.84378 404.071 7.5142 400.775 8.50296Z" fill="black"/>
<path d="M361.554 13.8423L357.006 18.3906L361.554 22.5433C363.993 24.8504 366.234 26.762 366.432 26.8939C366.696 26.9598 369.003 25.0482 371.705 22.6752L376.517 18.2587L371.639 13.7764C369.003 11.3375 366.696 9.29403 366.498 9.22811C366.3 9.22811 364.059 11.2715 361.554 13.8423Z" fill="black"/>
<path d="M349.426 10.8108C347.91 12.6565 347.91 16.0182 349.36 19.7755C350.151 21.753 351.074 24.126 351.271 25.0489C351.733 26.6309 351.799 26.6309 352.985 24.1919C354.106 21.753 354.106 21.4893 353.117 19.7755C352.458 18.7868 351.996 17.4684 351.996 16.8752C351.996 16.2819 351.535 15.8205 351.008 15.8205C349.558 15.8205 349.096 14.1726 349.887 11.8655C350.678 9.69022 350.546 9.42655 349.426 10.8108Z" fill="black"/>
<path d="M382.978 11.1394C384.032 13.1828 383.769 15.0285 382.319 15.8195C381.593 16.215 381 17.0719 381 17.797C381 18.4562 380.539 19.5108 379.946 20.0382C379.023 21.0269 379.023 21.3565 380.143 23.5977L381.33 26.1025L383.11 21.5543C384.164 19.1153 384.955 16.215 384.955 15.1603C384.955 12.9851 383.703 9.88697 382.846 9.88697C382.516 9.88697 382.582 10.4802 382.978 11.1394Z" fill="black"/>
<path d="M318.378 13.5787C313.566 15.2926 307.568 20.3682 301.635 27.8168C294.384 36.7815 289.507 40.0773 283.574 40.2092C278.696 40.2751 274.214 36.6497 274.214 32.6946C274.214 28.41 277.839 25.7074 283.574 25.7074C287.463 25.7074 289.638 24.8505 287.727 24.1254C284.563 22.9389 277.773 24.6528 275.071 27.3554C269.402 33.0242 275.466 42.1208 284.431 41.3957C291.154 40.8024 294.912 38.0998 303.547 27.3554C311.325 17.7315 317.719 13.8424 326.025 13.8424C336.901 13.8424 344.745 22.8071 341.185 31.1786C339.999 34.0789 336.044 37.4407 333.275 37.9021C328.463 38.8249 323.652 35.5291 323.652 31.3104C323.652 27.2235 328.595 24.9164 332.089 27.4213C334.264 28.9374 334.594 28.0805 332.484 26.4325C328.332 23.1367 322.333 26.1689 322.333 31.5081C322.333 38.4294 331.034 41.7912 337.89 37.5066C340.658 35.8587 343.427 30.6512 343.427 27.1576C343.427 22.4116 339.669 17.0064 334.528 14.3038C331.034 12.5241 322.597 12.1286 318.378 13.5787Z" fill="black"/>
<path d="M401.105 13.3802C394.645 15.9509 391.02 20.2355 390.427 25.8385C389.833 31.9028 393.657 37.3739 399.655 39.0219C402.292 39.681 403.215 39.681 405.522 38.89C413.432 36.1215 412.838 25.0475 404.797 25.0475C401.764 25.0475 398.666 27.1568 399.853 28.3433C400.38 28.8706 401.171 28.7388 402.819 27.7501C405.785 25.9044 406.972 26.0362 408.62 28.0796C411.322 31.5073 409.609 36.0556 404.994 37.5717C401.764 38.6263 398.534 37.9013 395.7 35.3964C389.702 30.1231 390.295 22.0812 397.084 17.2693C400.644 14.7644 403.478 13.8416 407.697 13.8416C415.871 13.8416 422.133 17.5988 429.911 27.1568C439.073 38.4945 442.237 40.8016 449.225 41.3289C453.905 41.6585 456.937 40.3402 459.31 36.9125C462.078 32.7597 460.76 27.7501 456.08 25.377C453.18 23.861 446.852 23.3995 445.27 24.586C444.083 25.5089 444.215 25.5748 446.918 25.2452C453.311 24.5201 459.442 28.0137 459.442 32.2983C459.442 38.2308 451.729 41.9222 445.072 39.2196C440.524 37.308 437.557 34.6713 431.757 27.3545C425.956 20.1037 422.858 17.3352 417.255 14.5007C413.695 12.6551 404.401 11.9959 401.105 13.3802Z" fill="black"/>
<path d="M293.99 14.832C293.99 15.3593 293.133 16.7436 292.078 17.9301C290.299 19.9076 290.035 20.0394 288.519 19.1825C287.069 18.3915 286.278 18.4574 282.323 19.6439C276.917 21.2919 273.819 23.2694 271.776 26.3015C269.996 28.9382 270.326 29.927 272.171 27.6199C272.896 26.697 275.006 25.115 276.917 24.1263C279.818 22.5443 281.334 22.1488 286.475 21.8851C291.287 21.6214 292.869 21.2919 293.726 20.369C294.979 18.9188 295.836 13.8432 294.715 13.8432C294.319 13.8432 293.99 14.3047 293.99 14.832Z" fill="black"/>
<path d="M438.348 15.8199C438.348 18.5225 439.666 21.0933 441.248 21.4229C442.039 21.5547 444.873 21.8184 447.576 21.9502C453.179 22.2139 457.332 23.7959 460.628 26.8281C463.001 29.1352 463.396 28.5419 461.419 25.7075C459.639 23.2026 456.738 21.4888 451.333 19.775C447.642 18.5884 446.455 18.4566 445.137 19.0499C442.962 20.0386 441.314 19.0499 440.259 16.1495C439.205 13.3151 438.348 13.1833 438.348 15.8199Z" fill="black"/>
<path d="M320.026 17.2045C316.928 18.0614 312.775 22.0165 308.095 28.4104C305.722 31.6403 302.558 35.3317 301.042 36.65C298.274 39.023 298.274 39.089 300.251 38.6275C301.372 38.3639 303.283 37.441 304.668 36.5841C306.711 35.1999 307.172 35.1339 307.832 35.9249C309.677 38.1661 313.764 36.1886 313.764 33.0905C313.764 31.5744 315.017 30.0583 317.719 28.1467C319.169 27.158 319.235 26.8284 318.576 24.9827C318.115 23.7303 317.983 22.4779 318.312 21.8846C319.103 20.5004 325.497 17.8637 328.134 17.7978C329.452 17.7978 330.177 17.5341 329.914 17.1386C329.452 16.3476 322.795 16.3476 320.026 17.2045Z" fill="black"/>
<path d="M403.412 17.139C402.687 17.6004 403.082 17.7982 404.994 17.7982C407.828 17.7982 415.013 20.7644 415.541 22.0828C415.738 22.6101 415.541 23.8625 415.079 24.9831C414.42 26.8288 414.486 27.1584 415.936 28.1471C418.705 30.1246 419.891 31.5748 419.891 33.2227C419.891 36.3868 423.912 38.1665 425.824 35.9253C426.549 35.0025 426.812 35.0025 427.735 35.8594C428.988 36.98 433.272 38.8916 434.525 38.8916C434.986 38.8916 434.459 38.2324 433.338 37.4414C432.217 36.6504 429.713 33.9478 427.735 31.3771C419.561 20.8304 418.836 20.1053 415.343 18.2596C411.585 16.4139 405.455 15.8207 403.412 17.139Z" fill="black"/>
<path d="M364.52 31.3111L362.938 33.025L364.717 34.7388L366.497 36.5186L368.475 34.607L370.452 32.6954L368.672 31.1793C366.365 29.3336 366.365 29.3336 364.52 31.3111Z" fill="black"/>
<path d="M279.224 32.0352C278.697 33.4194 279.29 34.2764 280.872 34.2764C282.454 34.2764 283.311 32.3648 282.058 31.5738C280.674 30.7169 279.685 30.8487 279.224 32.0352Z" fill="black"/>
<path d="M333.342 31.4422C332.419 32.3651 332.947 34.1448 334.199 34.4744C335.122 34.6721 335.781 34.4085 336.242 33.4856C336.638 32.7606 336.836 32.1014 336.704 31.9695C336.111 31.4422 333.738 31.0467 333.342 31.4422Z" fill="black"/>
<path d="M397.018 32.0356C396.623 33.1562 397.611 34.4745 399.127 34.6723C400.248 34.87 401.698 32.6289 401.105 31.6401C400.446 30.5854 397.48 30.8491 397.018 32.0356Z" fill="black"/>
<path d="M451.729 31.4419C451.268 31.5738 450.872 32.2989 450.872 33.0239C450.872 33.8809 451.333 34.2764 452.388 34.2764C454.366 34.2764 454.761 33.8809 454.366 32.2329C454.036 30.9805 453.311 30.7828 451.729 31.4419Z" fill="black"/>
<path d="M252.463 33.2896L250.881 35.0035L252.661 36.7173L254.44 38.4971L256.418 36.5855L258.395 34.6739L256.945 33.1578C255.165 31.2462 254.374 31.2462 252.463 33.2896Z" fill="black"/>
<path d="M261.625 33.3532L260.043 35.067L261.889 36.649C264.196 38.6265 264.393 38.6265 266.305 36.5831L267.821 34.9352L266.305 33.2873C264.328 31.2438 263.602 31.2438 261.625 33.3532Z" fill="black"/>
<path d="M466.626 33.3532L465.044 35.067L466.89 36.649C469.197 38.6265 469.394 38.6265 471.306 36.5831L472.822 34.9352L471.306 33.2873C469.329 31.2438 468.603 31.2438 466.626 33.3532Z" fill="black"/>
<path d="M476.383 33.1578L474.537 34.608L476.581 36.5855L478.558 38.4971L480.338 36.7173L482.118 35.0035L480.536 33.2896C478.624 31.3121 478.69 31.3121 476.383 33.1578Z" fill="black"/>
<path d="M0 34.9356C0 35.397 41.1981 35.5947 122.276 35.5947C203.354 35.5947 244.552 35.397 244.552 34.9356C244.552 34.4741 203.354 34.2764 122.276 34.2764C41.1981 34.2764 0 34.4741 0 34.9356Z" fill="black"/>
<path d="M488.445 34.9356C488.445 35.397 529.643 35.5947 610.721 35.5947C691.799 35.5947 732.997 35.397 732.997 34.9356C732.997 34.4741 691.799 34.2764 610.721 34.2764C529.643 34.2764 488.445 34.4741 488.445 34.9356Z" fill="black"/>
<path d="M342.109 36.5843C341.318 37.4412 339.407 38.7596 337.956 39.4847C336.111 40.4075 335.583 40.9348 336.243 41.1985C337.495 41.6599 340.659 40.5393 342.307 39.0892C343.362 38.1004 343.559 38.1663 345.207 39.6165L346.921 41.1985L345.866 39.5506C345.273 38.6937 344.746 37.2435 344.746 36.4525C344.746 34.475 344.021 34.5409 342.109 36.5843Z" fill="black"/>
<path d="M388.909 36.2547C388.909 37.0457 388.382 38.43 387.789 39.4188L386.668 41.1985L388.448 39.6165C390.096 38.1663 390.293 38.1004 391.348 39.0892C392.996 40.5393 396.16 41.6599 397.412 41.1985C398.138 40.9348 397.676 40.4734 395.83 39.6165C394.38 38.9573 392.469 37.639 391.612 36.6502C389.7 34.6068 388.909 34.475 388.909 36.2547Z" fill="black"/>
</svg>
