<svg width="233" height="21" viewBox="0 0 233 21" fill="none" xmlns="http://www.w3.org/2000/svg">
<g id="Group 1000005900">
<path id="&#60;Compound Path&#62;" fill-rule="evenodd" clip-rule="evenodd" d="M83.8069 12.3063C85.5842 11.9644 87.3848 11.662 89.2089 11.3991C90.1443 11.2939 91.0797 11.1887 92.0152 11.0835C92.9272 11.0046 93.9094 10.9652 94.8214 10.9257C96.7156 10.768 98.6099 10.8074 100.364 10.8863C107.52 11.2807 113.343 13.1346 116.359 15.028C116.406 15.0806 116.476 15.1332 116.57 15.1857C116.71 15.1069 116.85 14.9885 116.991 14.9096C120.008 13.0952 125.69 11.2807 132.706 10.9257C134.46 10.8469 136.284 10.8074 138.038 10.9257C138.95 11.0046 139.932 11.0441 140.844 11.123C141.733 11.2019 142.645 11.2939 143.58 11.3991C145.451 11.662 147.298 11.9644 149.122 12.3063C150.175 12.2274 151.227 12.188 152.35 12.188C153.753 12.1617 155.156 12.1485 156.559 12.1485C162.101 12.2669 167.714 12.6613 172.484 13.4896C181.464 14.8307 190.234 17.1185 199.074 18.578C200.898 18.1046 202.581 17.5524 204.055 16.8424C206.721 15.6196 208.825 14.0419 209.737 12.2274C211.842 8.59852 208.124 4.49629 202.441 2.9974C201.038 2.6424 199.565 2.40574 198.021 2.40574C196.478 2.40574 195.005 2.60296 193.601 2.91852C190.865 3.54963 188.55 4.73296 187.287 6.15296C185.954 7.53352 185.814 9.19018 186.726 10.5313C187.638 11.9119 189.462 13.0163 191.567 13.5685C193.672 14.1207 196.057 14.0419 197.881 13.5685C199.845 13.1346 201.178 12.2669 201.81 11.3991C202.441 10.4918 202.231 9.54518 201.81 8.83518C201.319 8.12518 200.547 7.57297 199.845 7.21797C198.372 6.50797 197.25 6.50797 197.25 6.42908C197.25 6.42908 197.53 6.46852 198.021 6.5474C198.512 6.62629 199.214 6.78407 199.986 7.09963C200.757 7.45463 201.529 8.00685 202.09 8.71685C202.652 9.46629 202.932 10.413 202.371 11.4385C201.74 12.4246 200.336 13.3319 198.302 13.8841C196.338 14.4363 193.812 14.5941 191.356 14.0418C188.971 13.5291 187.007 12.3457 185.884 10.8863C185.323 10.1368 185.042 9.34796 185.042 8.48019C185.042 7.65185 185.463 6.78407 186.095 5.99518C187.358 4.41741 189.743 3.0763 192.76 2.28741C195.706 1.45908 199.495 1.34074 202.722 2.12963C205.949 2.87907 208.615 4.37796 210.299 6.15296C211.982 7.9674 212.544 10.1763 211.632 12.188C211.211 13.2135 210.369 14.1996 209.387 15.0674C208.404 15.9746 207.142 16.7635 205.738 17.4341C204.476 18.0257 203.143 18.5385 201.74 19.0119C201.927 19.0381 202.09 19.0513 202.231 19.0513C207.212 19.7613 212.193 20.1557 216.963 19.998C219.279 19.9191 221.664 19.7613 223.769 19.4063C225.943 19.0907 227.838 18.4596 229.311 17.6707C230.714 16.8424 231.556 15.7774 231.556 14.7519C231.626 13.6869 230.644 12.7402 229.241 12.2274C227.908 11.7146 226.154 11.5569 224.891 11.9907C223.628 12.3852 222.997 13.1741 222.857 13.8446C222.786 14.1996 222.927 14.5152 223.137 14.7913C223.278 14.9491 223.418 15.0674 223.628 15.1857C223.698 15.2252 223.698 15.3435 223.769 15.4224C223.839 15.4619 223.909 15.5407 223.909 15.5802C224.54 16.0141 225.593 16.0141 226.224 15.9352C226.855 15.8169 227.276 15.5802 227.417 15.383C227.557 15.1857 227.557 15.0674 227.557 15.0674C227.557 15.0674 227.557 15.1069 227.557 15.1857C227.557 15.2252 227.557 15.3041 227.487 15.4224C227.417 15.6196 226.996 15.8957 226.294 16.0141C225.593 16.1718 224.54 16.2113 223.698 15.738C223.605 15.6591 223.511 15.5802 223.418 15.5013C223.348 15.4224 223.348 15.383 223.278 15.3435C223.207 15.2646 222.927 15.1069 222.786 14.9491C222.506 14.6335 222.365 14.2785 222.365 13.8841C222.365 13.0952 223.067 12.2274 224.47 11.6752C225.873 11.123 227.978 11.2018 229.592 11.7935C231.275 12.3063 232.468 13.4107 232.608 14.6335C232.678 15.8168 231.837 17.0791 230.363 18.0257C229.592 18.5385 228.609 18.8935 227.697 19.288C226.645 19.5641 225.593 19.8796 224.47 20.0769C222.225 20.5107 219.84 20.708 217.384 20.8657C212.403 21.063 207.282 20.7474 202.231 20.0769C201.248 19.9454 200.29 19.8139 199.354 19.6824C198.232 19.9585 197.109 20.1952 195.917 20.3924C188.62 21.4969 180.973 20.708 174.308 19.4063C167.924 18.223 161.119 16.1719 154.103 14.5152C152.373 14.0944 150.642 13.7131 148.912 13.3713C146.035 13.5291 143.299 13.7657 140.704 14.0418C139.441 14.1996 138.318 14.3969 137.196 14.5546C136.003 14.7124 134.951 14.8307 133.969 15.0674C131.934 15.4619 130.11 15.738 128.707 16.093C125.83 16.7635 124.006 17.1185 124.006 16.9607C124.006 16.803 125.62 16.2507 128.496 15.383C129.9 14.9885 131.653 14.6335 133.688 14.1996C134.67 13.9235 135.723 13.8052 136.845 13.608C137.968 13.4502 139.16 13.2135 140.353 13.0557C141.686 12.9374 143.089 12.7796 144.492 12.6219C144.118 12.5693 143.72 12.5167 143.299 12.4641C142.411 12.3589 141.522 12.2537 140.633 12.1485C139.721 12.0696 138.809 12.0302 137.967 11.9513C136.143 11.833 134.46 11.833 132.776 11.9119C125.971 12.2274 120.499 13.8841 117.552 15.5407C117.459 15.5933 117.388 15.6459 117.342 15.6985C119.446 17.2763 119.797 18.4991 119.587 18.4202C119.236 18.4202 118.534 17.4341 116.57 16.1719C114.395 17.5524 113.764 18.6174 113.483 18.4596C113.413 18.3807 113.834 17.1974 115.798 15.6985C115.588 15.5802 115.377 15.4619 115.167 15.3435C112.15 13.7263 106.748 12.1485 100.083 11.8724C98.4695 11.7935 96.7858 11.7935 95.0319 11.9119C94.19 11.9907 93.278 12.0302 92.4361 12.1091C91.5475 12.2143 90.6588 12.3194 89.7701 12.4246C89.3492 12.4772 88.9049 12.543 88.4372 12.6219C89.8871 12.727 91.2902 12.8717 92.6466 13.0557C93.9094 13.2135 95.102 13.4107 96.2245 13.608C97.4172 13.8052 98.5397 13.9235 99.5219 14.1602C101.556 14.6335 103.38 14.9885 104.784 15.4224C107.66 16.2507 109.274 16.803 108.993 16.9213C108.783 17.0002 106.888 16.6452 104.012 15.9746C102.609 15.6591 100.785 15.3435 98.8203 14.9491C97.8381 14.7519 96.7156 14.6335 95.6633 14.4757C94.5408 14.318 93.4183 14.1207 92.2256 14.0024C89.7701 13.8052 87.2445 13.4502 84.5786 13.3713C84.4383 13.3713 84.2746 13.3713 84.0875 13.3713C82.4505 13.6869 80.8369 14.0287 79.2467 14.3969C72.3714 16.0535 65.6364 18.0257 59.2522 19.288C55.8847 19.9585 52.3769 20.4713 48.7287 20.7474L45.9225 20.9052C45.0105 20.9446 44.0984 20.9052 43.1864 20.9052C41.2922 20.9052 39.4681 20.708 37.6441 20.4713C36.2409 20.2741 34.908 19.998 33.575 19.6824C32.7331 19.8007 31.9614 19.9191 31.1195 20.0374C25.9981 20.708 20.8767 21.063 15.8956 20.8263C13.4401 20.708 11.0548 20.5107 8.73969 20.1163C6.49469 19.7219 4.39 19.0119 2.77641 18.1046C1.30313 17.158 0.320946 15.9352 0.391102 14.7519C0.461258 13.5291 1.6539 12.4246 3.26749 11.8724C4.81093 11.2807 6.91562 11.1624 8.31875 11.7146C9.72188 12.2274 10.4234 13.0952 10.4936 13.8446C10.4936 14.1996 10.3533 14.5941 10.0727 14.8702C9.93234 15.028 9.72187 15.1857 9.58155 15.2646C9.44124 15.3435 9.44125 15.383 9.44125 15.4619C9.3711 15.5407 9.30093 15.6196 9.23077 15.6591C8.45905 16.1324 7.33657 16.093 6.70516 15.9746C6.0036 15.8563 5.65282 15.5802 5.58266 15.383C5.5125 15.3041 5.5125 15.2252 5.5125 15.1463C5.5125 15.0937 5.5125 15.0674 5.5125 15.0674C5.5125 15.0674 5.51251 15.1857 5.65282 15.3435C5.79313 15.5407 6.1439 15.7774 6.7753 15.8563C7.33655 15.9352 8.31874 15.9352 8.87999 15.5802C8.92676 15.5276 8.97354 15.475 9.02031 15.4224C9.09047 15.383 9.09048 15.2646 9.16063 15.1857C9.44126 15.028 9.5114 14.9491 9.65171 14.7913C9.86218 14.5546 10.0025 14.2391 9.93233 13.8841C9.86218 13.2135 9.23079 12.4641 8.03813 12.0696C6.91563 11.6357 5.16172 11.7146 3.82875 12.2274C2.42563 12.7402 1.5136 13.6474 1.44345 14.6335C1.37329 15.6591 2.21516 16.7241 3.54813 17.5524C4.17954 17.9863 5.09157 18.2624 5.93344 18.6174C6.91563 18.8935 7.82765 19.1696 8.95015 19.3274C11.0548 19.6824 13.37 19.8796 15.6852 19.9585C20.4558 20.1557 25.3667 19.8007 30.3478 19.0907C30.6285 19.0644 30.909 19.025 31.1897 18.9724C29.9269 18.578 28.8044 18.1441 27.6819 17.6707C24.8055 16.3296 22.4903 14.5152 21.5081 12.5035C20.3856 10.4919 20.8767 8.24352 22.4202 6.42908C24.0338 4.57519 26.6295 3.0763 29.8567 2.24796C31.4703 1.85352 33.1541 1.61685 34.908 1.61685C36.6619 1.61685 38.3456 1.85352 39.8189 2.24796C42.9058 2.95796 45.2911 4.29907 46.6942 5.87685C48.0974 7.41518 48.1675 9.26907 47.1151 10.7285C46.0628 12.2274 44.0283 13.3713 41.7131 13.963C39.3278 14.5152 36.8022 14.3969 34.7677 13.8841C32.8033 13.3713 31.33 12.4246 30.7688 11.478C30.1373 10.4524 30.418 9.50574 30.9091 8.79574C31.4703 8.0463 32.242 7.53352 33.0138 7.17852C33.7855 6.82352 34.487 6.70518 34.9781 6.58685C35.4692 6.54741 35.6797 6.50796 35.6797 6.50796C35.7498 6.54741 34.6274 6.58685 33.1541 7.25741C32.4525 7.61241 31.7509 8.12518 31.2599 8.83518C30.8389 9.50574 30.6284 10.413 31.1897 11.3202C31.8211 12.188 33.0839 13.0163 34.9781 13.4896C36.8022 13.963 39.1174 14.0419 41.222 13.5685C43.3267 13.0557 45.0806 11.9513 46.0628 10.6496C46.5539 9.97907 46.7644 9.26907 46.6942 8.51963C46.6942 7.77018 46.3434 7.02074 45.712 6.31074C44.5194 4.89074 42.2744 3.7074 39.6084 2.9974C36.9425 2.2874 33.7153 2.24796 30.8389 2.95796C25.1562 4.29908 21.2275 8.32241 23.0516 11.9513C23.4725 12.8585 24.1741 13.7263 25.0861 14.5152C25.9981 15.3041 27.1908 16.0141 28.4536 16.6452C29.7164 17.2763 31.1897 17.8285 32.7331 18.2624C33.0839 18.3807 33.5049 18.4596 33.8556 18.578C42.555 17.158 51.1842 14.8702 60.0239 13.5685C61.1932 13.3844 62.4326 13.2004 63.7422 13.0163C65.005 12.8848 66.3146 12.7533 67.6709 12.6219C68.3725 12.543 69.0039 12.4641 69.7055 12.4246C70.407 12.372 71.1086 12.3326 71.8102 12.3063C73.2133 12.2669 74.6865 12.1485 76.0897 12.1485C78.6855 12.1091 81.2812 12.1485 83.8069 12.3063ZM153.542 13.2135C153.823 13.2924 154.127 13.3581 154.454 13.4107C161.47 15.1069 168.135 17.0791 174.308 18.2624C177.606 18.933 181.043 19.4063 184.481 19.6824L187.077 19.8007C187.989 19.8402 188.831 19.8007 189.673 19.8007C191.497 19.8402 193.18 19.643 194.864 19.4457C195.355 19.3669 195.846 19.2485 196.338 19.1696C188.199 17.7891 180.342 15.8169 172.414 14.5941C171.245 14.41 170.052 14.2259 168.836 14.0418C167.573 13.9104 166.287 13.7789 164.978 13.6474C164.276 13.608 163.645 13.5291 162.943 13.4896C162.288 13.437 161.61 13.3976 160.909 13.3713C159.576 13.3319 158.172 13.2135 156.769 13.2135C155.717 13.2135 154.665 13.2135 153.542 13.2135ZM79.4572 13.2135C78.4282 13.2135 77.4226 13.2135 76.4405 13.2135C71.0384 13.3319 65.5662 13.7263 61.0061 14.5152C52.9381 15.738 44.8702 17.7496 36.5917 19.1696C36.9425 19.2091 37.2231 19.288 37.5739 19.3274C39.1875 19.6035 40.9414 19.7613 42.6252 19.8007L45.2209 19.8402L47.8869 19.7219C51.3245 19.4852 54.7622 19.0513 57.9894 18.3807C64.2333 17.2368 70.9683 15.2252 78.1242 13.4896C78.5452 13.4107 78.9895 13.3187 79.4572 13.2135Z" fill="black"/>
<path id="&#60;Compound Path&#62;_2" fill-rule="evenodd" clip-rule="evenodd" d="M115.939 11.4389C115.728 11.0839 110.466 3.35277 113.553 0.82833C114.255 0.276107 115.237 0 116.5 0C117.809 0 118.792 0.276107 119.446 0.82833C122.533 3.35277 117.271 11.0839 117.061 11.4389L116.5 12.2278L115.939 11.4389ZM116.5 10.3739C118.113 7.77056 120.499 2.84 118.464 1.22277C118.043 0.854626 117.388 0.670554 116.5 0.670554C115.611 0.670554 114.956 0.854626 114.535 1.22277C112.501 2.84 114.886 7.77056 116.5 10.3739Z" fill="black"/>
<path id="&#60;Compound Path&#62;_3" fill-rule="evenodd" clip-rule="evenodd" d="M118.183 11.5172C118.394 10.8072 120.288 4.49609 125.129 4.49609C125.924 4.49609 126.719 4.66702 127.514 5.00887C128.777 5.5348 129.338 6.15276 129.198 6.86276C128.777 9.30832 119.446 11.7539 119.025 11.8722L118.043 12.1483L118.183 11.5172ZM119.516 10.965C122.463 10.0972 127.725 8.28276 128.005 6.78387C128.146 6.31054 127.725 5.9161 126.813 5.52165C126.205 5.25869 125.62 5.12721 125.059 5.12721C122.112 5.12721 120.218 8.91388 119.516 10.965Z" fill="black"/>
<path id="&#60;Compound Path&#62;_4" fill-rule="evenodd" clip-rule="evenodd" d="M103.801 6.86276C103.661 6.15276 104.222 5.5348 105.485 5.00887C106.327 4.66702 107.146 4.49609 107.941 4.49609C112.781 4.49609 114.606 10.8072 114.816 11.5172L115.026 12.1483L113.974 11.8722C113.623 11.7539 104.293 9.30832 103.801 6.86276ZM104.994 6.78387C105.275 8.32221 110.536 10.1366 113.483 11.0044C112.781 8.91387 110.887 5.16665 107.941 5.16665C107.379 5.16665 106.795 5.29813 106.187 5.56109C105.275 5.91609 104.924 6.34998 104.994 6.78387Z" fill="black"/>
</g>
</svg>
